{
    "asset" : {
        "generator" : "Khronos glTF Blender I/O v3.3.32",
        "version" : "2.0"
    },
    "extensionsUsed" : [
        "KHR_materials_specular",
        "KHR_materials_ior"
    ],
    "scene" : 0,
    "scenes" : [
        {
            "name" : "Scene",
            "nodes" : [
                0
            ]
        }
    ],
    "nodes" : [
        {
            "mesh" : 0,
            "name" : "Gitterobenalljoined",
            "rotation" : [
                0.6413758993148804,
                -0.2977196276187897,
                -0.29771971702575684,
                0.6413758397102356
            ],
            "translation" : [
                -2.7836475372314453,
                40.740665435791016,
                5.921481132507324
            ]
        }
    ],
    "materials" : [
        {
            "doubleSided" : true,
            "emissiveFactor" : [
                0.05472715198993683,
                0.05472715198993683,
                0.05472715198993683
            ],
            "extensions" : {
                "KHR_materials_specular" : {
                    "specularColorFactor" : [
                        2.171075812310079,
                        2.171075812310079,
                        2.171075812310079
                    ]
                },
                "KHR_materials_ior" : {
                    "ior" : 1.4500000476837158
                }
            },
            "name" : "Metall",
            "pbrMetallicRoughness" : {
                "roughnessFactor" : 0
            }
        }
    ],
    "meshes" : [
        {
            "name" : "BezierCurve.021",
            "primitives" : [
                {
                    "attributes" : {
                        "POSITION" : 0,
                        "NORMAL" : 1,
                        "TEXCOORD_0" : 2
                    },
                    "indices" : 3,
                    "material" : 0
                }
            ]
        }
    ],
    "accessors" : [
        {
            "bufferView" : 0,
            "componentType" : 5126,
            "count" : 9227,
            "max" : [
                10.48626708984375,
                0.35805949568748474,
                19.77901840209961
            ],
            "min" : [
                -10.830820083618164,
                -0.5518388152122498,
                -0.5223621129989624
            ],
            "type" : "VEC3"
        },
        {
            "bufferView" : 1,
            "componentType" : 5126,
            "count" : 9227,
            "type" : "VEC3"
        },
        {
            "bufferView" : 2,
            "componentType" : 5126,
            "count" : 9227,
            "type" : "VEC2"
        },
        {
            "bufferView" : 3,
            "componentType" : 5123,
            "count" : 34416,
            "type" : "SCALAR"
        }
    ],
    "bufferViews" : [
        {
            "buffer" : 0,
            "byteLength" : 110724,
            "byteOffset" : 0,
            "target" : 34962
        },
        {
            "buffer" : 0,
            "byteLength" : 110724,
            "byteOffset" : 110724,
            "target" : 34962
        },
        {
            "buffer" : 0,
            "byteLength" : 73816,
            "byteOffset" : 221448,
            "target" : 34962
        },
        {
            "buffer" : 0,
            "byteLength" : 68832,
            "byteOffset" : 295264,
            "target" : 34963
        }
    ],
    "buffers" : [
        {
            "byteLength" : 364096,
            "uri" : "data:application/octet-stream;base64,"
        }
    ]
}
