{
    "asset" : {
        "generator" : "Khronos glTF Blender I/O v3.3.32",
        "version" : "2.0"
    },
    "extensionsUsed" : [
        "KHR_materials_specular",
        "KHR_materials_ior"
    ],
    "scene" : 0,
    "scenes" : [
        {
            "name" : "Scene",
            "nodes" : [
                0
            ]
        }
    ],
    "nodes" : [
        {
            "mesh" : 0,
            "name" : "Gitter Unten.001",
            "rotation" : [
                0.7071059942245483,
                0.0010683523723855615,
                0.0010683526052162051,
                0.7071059346199036
            ],
            "translation" : [
                -9.491508483886719,
                -12.212240219116211,
                3.4913558959960938
            ]
        }
    ],
    "materials" : [
        {
            "doubleSided" : true,
            "emissiveFactor" : [
                0.05472715198993683,
                0.05472715198993683,
                0.05472715198993683
            ],
            "extensions" : {
                "KHR_materials_specular" : {
                    "specularColorFactor" : [
                        2.171075812310079,
                        2.171075812310079,
                        2.171075812310079
                    ]
                },
                "KHR_materials_ior" : {
                    "ior" : 1.4500000476837158
                }
            },
            "name" : "Metall.001",
            "pbrMetallicRoughness" : {
                "roughnessFactor" : 0
            }
        }
    ],
    "meshes" : [
        {
            "name" : "Plane.007",
            "primitives" : [
                {
                    "attributes" : {
                        "POSITION" : 0,
                        "NORMAL" : 1,
                        "TEXCOORD_0" : 2
                    },
                    "indices" : 3,
                    "material" : 0
                }
            ]
        }
    ],
    "accessors" : [
        {
            "bufferView" : 0,
            "componentType" : 5126,
            "count" : 20521,
            "max" : [
                19.027265548706055,
                1.6895254850387573,
                10.637273788452148
            ],
            "min" : [
                -18.88172149658203,
                -0.7982256412506104,
                -10.714537620544434
            ],
            "type" : "VEC3"
        },
        {
            "bufferView" : 1,
            "componentType" : 5126,
            "count" : 20521,
            "type" : "VEC3"
        },
        {
            "bufferView" : 2,
            "componentType" : 5126,
            "count" : 20521,
            "type" : "VEC2"
        },
        {
            "bufferView" : 3,
            "componentType" : 5123,
            "count" : 55200,
            "type" : "SCALAR"
        }
    ],
    "bufferViews" : [
        {
            "buffer" : 0,
            "byteLength" : 246252,
            "byteOffset" : 0,
            "target" : 34962
        },
        {
            "buffer" : 0,
            "byteLength" : 246252,
            "byteOffset" : 246252,
            "target" : 34962
        },
        {
            "buffer" : 0,
            "byteLength" : 164168,
            "byteOffset" : 492504,
            "target" : 34962
        },
        {
            "buffer" : 0,
            "byteLength" : 110400,
            "byteOffset" : 656672,
            "target" : 34963
        }
    ],
    "buffers" : [
        {
            "byteLength" : 767072,
            "uri" : "data:application/octet-stream;base64,"
        }
    ]
}
