{
    "asset" : {
        "generator" : "Khronos glTF Blender I/O v3.3.32",
        "version" : "2.0"
    },
    "scene" : 0,
    "scenes" : [
        {
            "name" : "Scene",
            "nodes" : [
                0
            ]
        }
    ],
    "nodes" : [
        {
            "mesh" : 0,
            "name" : "Allpine",
            "rotation" : [
                0.9509809613227844,
                0.3045959770679474,
                0.05062190815806389,
                0.017144709825515747
            ],
            "translation" : [
                -19.396251678466797,
                -9.161054611206055,
                -10.55552864074707
            ]
        }
    ],
    "materials" : [
        {
            "doubleSided" : true,
            "name" : "pinebacked",
            "pbrMetallicRoughness" : {
                "baseColorTexture" : {
                    "index" : 0
                },
                "metallicFactor" : 0,
                "roughnessFactor" : 0.5
            }
        }
    ],
    "meshes" : [
        {
            "name" : "Plane.019",
            "primitives" : [
                {
                    "attributes" : {
                        "POSITION" : 0,
                        "NORMAL" : 1,
                        "TEXCOORD_0" : 2
                    },
                    "indices" : 3,
                    "material" : 0
                }
            ]
        }
    ],
    "textures" : [
        {
            "sampler" : 0,
            "source" : 0
        }
    ],
    "images" : [
        {
            "bufferView" : 4,
            "mimeType" : "image/png",
            "name" : "pinebacked"
        }
    ],
    "accessors" : [
        {
            "bufferView" : 0,
            "componentType" : 5126,
            "count" : 19044,
            "max" : [
                22.132963180541992,
                24.340744018554688,
                7.440297603607178
            ],
            "min" : [
                -10.062140464782715,
                -5.038680076599121,
                -13.391825675964355
            ],
            "type" : "VEC3"
        },
        {
            "bufferView" : 1,
            "componentType" : 5126,
            "count" : 19044,
            "type" : "VEC3"
        },
        {
            "bufferView" : 2,
            "componentType" : 5126,
            "count" : 19044,
            "type" : "VEC2"
        },
        {
            "bufferView" : 3,
            "componentType" : 5123,
            "count" : 48384,
            "type" : "SCALAR"
        }
    ],
    "bufferViews" : [
        {
            "buffer" : 0,
            "byteLength" : 228528,
            "byteOffset" : 0,
            "target" : 34962
        },
        {
            "buffer" : 0,
            "byteLength" : 228528,
            "byteOffset" : 228528,
            "target" : 34962
        },
        {
            "buffer" : 0,
            "byteLength" : 152352,
            "byteOffset" : 457056,
            "target" : 34962
        },
        {
            "buffer" : 0,
            "byteLength" : 96768,
            "byteOffset" : 609408,
            "target" : 34963
        },
        {
            "buffer" : 0,
            "byteLength" : 1568836,
            "byteOffset" : 706176
        }
    ],
    "samplers" : [
        {
            "magFilter" : 9729,
            "minFilter" : 9987
        }
    ],
    "buffers" : [
        {
            "byteLength" : 2275012,
            "uri" : "data:application/octet-stream;base64,"
        }
    ]
}
